<?xml version="1.0" encoding="UTF-8" standalone="no"?>
<!-- Created with Inkscape (http://www.inkscape.org/) -->

<svg
   xmlns:dc="http://purl.org/dc/elements/1.1/"
   xmlns:cc="http://creativecommons.org/ns#"
   xmlns:rdf="http://www.w3.org/1999/02/22-rdf-syntax-ns#"
   xmlns:svg="http://www.w3.org/2000/svg"
   xmlns="http://www.w3.org/2000/svg"
   xmlns:xlink="http://www.w3.org/1999/xlink"
   xmlns:sodipodi="http://sodipodi.sourceforge.net/DTD/sodipodi-0.dtd"
   xmlns:inkscape="http://www.inkscape.org/namespaces/inkscape"
   width="242.64754mm"
   height="86.913033mm"
   viewBox="0 0 859.77474 307.95956"
   id="svg2"
   version="1.1"
   inkscape:version="0.91 r13725"
   sodipodi:docname="logo.svg"
   inkscape:export-filename="/Users/pcipov/projects/mobi/doc/logo.png"
   inkscape:export-xdpi="19.99"
   inkscape:export-ydpi="19.99">
  <sodipodi:namedview
     id="base"
     pagecolor="#ffffff"
     bordercolor="#666666"
     borderopacity="1.0"
     inkscape:pageopacity="0.0"
     inkscape:pageshadow="2"
     inkscape:zoom="0.56634493"
     inkscape:cx="663.30789"
     inkscape:cy="108.6442"
     inkscape:document-units="px"
     inkscape:current-layer="layer2"
     showgrid="false"
     inkscape:window-width="1440"
     inkscape:window-height="798"
     inkscape:window-x="0"
     inkscape:window-y="0"
     inkscape:window-maximized="1"
     fit-margin-top="20"
     fit-margin-right="20"
     fit-margin-bottom="20"
     fit-margin-left="20" />
  <defs
     id="defs4">
    <inkscape:path-effect
       cusp_linecap_type="round"
       end_linecap_type="zerowidth"
       miter_limit="4"
       linejoin_type="round"
       start_linecap_type="zerowidth"
       interpolator_beta="0.2"
       interpolator_type="Linear"
       sort_points="true"
       offset_points="0,0.15944598"
       is_visible="true"
       id="path-effect4439"
       effect="powerstroke" />
    <inkscape:path-effect
       is_visible="true"
       id="path-effect4437"
       effect="spiro" />
    <inkscape:path-effect
       effect="powerstroke"
       id="path-effect4423"
       is_visible="true"
       offset_points="0,0.15944598"
       sort_points="true"
       interpolator_type="Linear"
       interpolator_beta="0.2"
       start_linecap_type="zerowidth"
       linejoin_type="round"
       miter_limit="4"
       end_linecap_type="zerowidth"
       cusp_linecap_type="round" />
    <inkscape:path-effect
       effect="spiro"
       id="path-effect4421"
       is_visible="true" />
    <inkscape:path-effect
       effect="spiro"
       id="path-effect4314"
       is_visible="true" />
    <inkscape:path-effect
       effect="spiro"
       id="path-effect4294"
       is_visible="true" />
    <inkscape:path-effect
       cusp_linecap_type="round"
       end_linecap_type="zerowidth"
       miter_limit="4"
       linejoin_type="round"
       start_linecap_type="zerowidth"
       interpolator_beta="0.2"
       interpolator_type="Linear"
       sort_points="true"
       offset_points="0,0.5"
       is_visible="true"
       id="path-effect4290"
       effect="powerstroke" />
    <inkscape:path-effect
       is_visible="true"
       id="path-effect4288"
       effect="spiro" />
    <inkscape:path-effect
       is_visible="true"
       id="path-effect4284"
       effect="spiro" />
    <inkscape:path-effect
       is_visible="true"
       id="path-effect4280"
       effect="spiro" />
    <inkscape:path-effect
       cusp_linecap_type="round"
       end_linecap_type="zerowidth"
       miter_limit="4"
       linejoin_type="round"
       start_linecap_type="zerowidth"
       interpolator_beta="0.2"
       interpolator_type="Linear"
       sort_points="true"
       offset_points="0,0.5"
       is_visible="true"
       id="path-effect4276"
       effect="powerstroke" />
    <inkscape:path-effect
       is_visible="true"
       id="path-effect4274"
       effect="spiro" />
    <inkscape:path-effect
       is_visible="true"
       id="path-effect4270"
       effect="spiro" />
    <inkscape:path-effect
       is_visible="true"
       id="path-effect4266"
       effect="spiro" />
    <inkscape:path-effect
       is_visible="true"
       id="path-effect4262"
       effect="spiro" />
    <inkscape:path-effect
       is_visible="true"
       id="path-effect4258"
       effect="spiro" />
    <inkscape:path-effect
       is_visible="true"
       id="path-effect4254"
       effect="spiro" />
  </defs>
  <metadata
     id="metadata7">
    <rdf:RDF>
      <cc:Work
         rdf:about="">
        <dc:format>image/svg+xml</dc:format>
        <dc:type
           rdf:resource="http://purl.org/dc/dcmitype/StillImage" />
        <dc:title />
      </cc:Work>
    </rdf:RDF>
  </metadata>
  <g
     style="display:none"
     sodipodi:insensitive="true"
     id="layer1"
     inkscape:groupmode="layer"
     inkscape:label="Layer 1"
     transform="translate(-156.05985,-326.86573)">
    <image
       width="750"
       height="498.75"
       preserveAspectRatio="none"
       xlink:href="file:///Users/pcipov/Desktop/Whale_Tail_with_Unique_Pattern_600.jpg"
       id="image4214"
       x="-5.9669299"
       y="215.0063"
       sodipodi:absref="/Users/pcipov/Desktop/Whale_Tail_with_Unique_Pattern_600.jpg" />
  </g>
  <g
     inkscape:label="tail"
     id="layer2"
     inkscape:groupmode="layer"
     transform="translate(-156.05985,-326.86573)">
    <path
       sodipodi:nodetypes="czssssssscsssssssc"
       inkscape:connector-curvature="0"
       id="path4218"
       d="m 326.64285,548.3801 c 1.49668,-16.10893 3.04293,-25.75323 4.21674,-32.07494 1.17381,-6.3217 6.07312,-29.46198 18.10269,-30.88327 7.42142,-0.87685 61.2605,-2.50477 68.26874,-18.75438 2.14153,-4.96545 3.82141,-7.06598 3.22348,-15.03957 -0.1245,-1.66011 -0.46947,-2.51277 -0.99739,-2.81028 -1.88542,-1.06252 -6.10178,4.9582 -10.92097,6.58305 -5.90555,1.99114 -31.26759,-7.93127 -42.98161,-9.09066 -6.82445,-0.67544 -24.35553,0.13858 -26.63013,1.95033 -1.54453,1.23024 -1.66266,2.69242 -1.58242,3.51467 -0.25901,-1.43301 -1.1008,-5.12074 -3.27583,-7.65412 -2.74191,-3.19366 -6.72789,-9.32674 -19.95477,-15.66555 -5.26331,-2.52237 -33.02224,-10.77738 -37.59472,-15.80358 -5.50566,-6.052 -9.11457,-16.78952 -9.531,-11.49697 -0.96361,12.24685 -2.06437,14.76448 3.92935,26.86691 7.73064,15.60959 40.93868,44.06801 46.72038,49.1339 5.71175,5.00461 1.81122,21.68214 -1.55456,30.33377 -6.39839,16.44682 -8.62113,21.72809 -19.09866,32.97619"
       style="fill:none;fill-rule:evenodd;stroke:#000000;stroke-width:4;stroke-linecap:butt;stroke-linejoin:miter;stroke-miterlimit:4;stroke-dasharray:none;stroke-opacity:1" />
    <path
       style="fill:none;fill-opacity:1;fill-rule:evenodd;stroke:#000000;stroke-width:4;stroke-linecap:butt;stroke-linejoin:miter;stroke-miterlimit:4;stroke-dasharray:none;stroke-opacity:1"
       d="m 229.99004,559.23278 c 0.52808,-0.63932 1.03493,-1.29612 1.51943,-1.96896 0.85571,-1.18669 1.63234,-2.40504 2.67102,-3.39098 0.51682,-0.49146 1.09462,-0.91841 1.73348,-1.21876 0.63883,-0.30033 1.34043,-0.47112 2.03901,-0.44811 1.24592,0.0421 2.42062,0.69903 3.33225,1.58572 0.91255,0.8876 1.59075,1.98778 2.25834,3.0982 0.66472,1.10563 1.33701,2.24504 2.24352,3.19272 0.90773,0.94895 2.09508,1.71137 3.42193,1.85236 0.84385,0.0892 1.70134,-0.079 2.47052,-0.41951 0.76919,-0.3405 1.45348,-0.84927 2.04357,-1.43908 1.17888,-1.17656 1.98455,-2.66303 2.78605,-4.09444 0.80456,-1.43689 1.64444,-2.87046 2.8629,-3.94299 0.608,-0.53602 1.30637,-0.97344 2.06999,-1.22891 0.76364,-0.25547 1.59446,-0.32377 2.37352,-0.14093 1.21373,0.28557 2.23192,1.16038 2.95579,2.19937 0.72459,1.04002 1.18839,2.23666 1.66284,3.43057 0.47289,1.18997 0.97104,2.4034 1.75452,3.43628 0.39272,0.51668 0.85672,0.98546 1.3961,1.35263 0.53939,0.36718 1.15594,0.63106 1.80438,0.72856 0.74028,0.11149 1.50358,0.003 2.19852,-0.2629 0.69496,-0.26548 1.32371,-0.68406 1.86938,-1.18338 1.09125,-0.99683 1.84609,-2.29797 2.53844,-3.58685 0.69412,-1.29219 1.35186,-2.60717 2.29724,-3.71108 0.47159,-0.55164 1.01327,-1.04597 1.6301,-1.42289 0.61683,-0.37691 1.3109,-0.63424 2.02795,-0.70279 0.76731,-0.0733 1.54976,0.0711 2.26529,0.36741 0.71553,0.29632 1.36563,0.74112 1.9408,1.2646 1.15043,1.04877 1.98872,2.38884 2.82976,3.71168 0.83965,1.32067 1.71372,2.66103 2.91639,3.67703 0.60209,0.50781 1.28436,0.92928 2.02966,1.18959 0.7453,0.26032 1.55531,0.35562 2.33475,0.22128 1.32911,-0.22816 2.47158,-1.10385 3.30335,-2.15503 0.83148,-1.05081 1.39825,-2.28079 1.97316,-3.48408 0.57556,-1.20464 1.17849,-2.41307 2.06513,-3.40434 0.4427,-0.49589 0.95493,-0.93343 1.53452,-1.25732 0.57957,-0.32389 1.22829,-0.53213 1.89092,-0.56547 1.23192,-0.0609 2.43895,0.48878 3.37748,1.29547 0.93854,0.80671 1.63873,1.85381 2.2618,2.92644 0.6227,1.07198 1.18275,2.18678 1.90059,3.19968 0.71811,1.0133 1.61603,1.93554 2.74079,2.46388 1.22524,0.57566 2.68138,0.638 3.95048,0.1699 1.26914,-0.46812 2.33498,-1.46066 2.8921,-2.69216 -0.55945,1.2305 -1.62665,2.22001 -2.89472,2.68503 -1.26811,0.46504 -2.72094,0.39969 -3.94138,-0.17651 -1.1202,-0.52899 -2.01403,-1.45051 -2.72868,-2.46329 -0.71492,-1.01318 -1.27135,-2.12671 -1.8929,-3.20175 -0.62117,-1.07439 -1.32163,-2.12724 -2.26331,-2.93998 -0.94168,-0.81275 -2.15778,-1.37129 -3.40445,-1.31221 -0.67077,0.0312 -1.32757,0.2394 -1.91456,0.56453 -0.58699,0.32511 -1.10568,0.76495 -1.55391,1.26322 -0.89523,0.99706 -1.50379,2.21203 -2.08153,3.41537 -0.57838,1.20469 -1.14382,2.42506 -1.97103,3.46642 -0.82693,1.041 -1.95517,1.89878 -3.25791,2.11988 -0.76387,0.1291 -1.55858,0.0334 -2.29051,-0.22492 -0.73194,-0.25831 -1.40299,-0.67547 -1.99608,-1.17898 -1.18768,-1.00662 -2.05219,-2.33551 -2.8904,-3.65863 -0.83683,-1.32093 -1.68085,-2.6762 -2.84272,-3.73883 -0.58098,-0.53222 -1.24093,-0.98758 -1.97092,-1.29267 -0.72998,-0.30507 -1.53254,-0.45675 -2.32401,-0.38376 -0.73978,0.0681 -1.45387,0.33071 -2.08695,0.71456 -0.63308,0.38384 -1.18739,0.88681 -1.66854,1.44571 -0.9601,1.11718 -1.62852,2.44837 -2.32146,3.73303 -0.69473,1.28796 -1.44105,2.56597 -2.51216,3.54102 -0.53551,0.48663 -1.14848,0.89069 -1.82129,1.14505 -0.67283,0.25437 -1.40662,0.35527 -2.11288,0.2464 -0.61852,-0.0955 -1.20923,-0.3503 -1.72784,-0.70635 -0.51863,-0.35606 -0.96678,-0.81163 -1.34759,-1.31677 -0.76356,-1.01074 -1.251,-2.20151 -1.72234,-3.39443 -0.46978,-1.189 -0.93952,-2.41037 -1.67805,-3.47487 -0.73925,-1.06555 -1.7945,-1.98524 -3.07521,-2.28925 -0.82225,-0.19564 -1.69432,-0.1252 -2.49194,0.13891 -0.79762,0.26411 -1.52288,0.71653 -2.15084,1.26673 -1.25345,1.09991 -2.11238,2.56567 -2.91782,3.99893 -0.8085,1.43874 -1.60008,2.89112 -2.75226,4.0375 -0.57545,0.57165 -1.23673,1.05863 -1.97315,1.38191 -0.73643,0.32329 -1.54969,0.47831 -2.34191,0.3921 -1.24577,-0.13484 -2.3783,-0.85672 -3.25725,-1.77919 -0.88017,-0.92375 -1.53506,-2.03668 -2.20133,-3.14982 -0.6634,-1.10835 -1.35628,-2.24052 -2.29667,-3.15878 -0.94132,-0.91916 -2.1784,-1.62503 -3.51829,-1.67287 -0.75137,-0.0274 -1.49931,0.15368 -2.17454,0.46825 -0.67521,0.31456 -1.28056,0.76007 -1.81687,1.2665 -1.06759,1.00984 -1.87101,2.26373 -2.71447,3.42914 -0.48253,0.66578 -0.98711,1.31553 -1.51265,1.9478 z"
       id="path4419"
       inkscape:path-effect="#path-effect4421;#path-effect4423"
       inkscape:original-d="m 229.86726,559.13105 c 0.40232,-10.22173 -1.27823,-17.36245 1.51604,-1.95838 2.6693,14.71522 -0.66697,-6.2903 6.57469,-5.11087 7.24166,1.17943 -0.70212,16.19554 11.2648,9.74483 14.87426,-8.0179 2.76957,-6.76513 14.61723,-11.24097 11.84766,-4.47585 -5.72562,20.99313 9.56233,11.16454 15.28795,-9.82859 2.4846,-24.60785 12.54245,-10.84783 10.05787,13.76003 0.53275,21.31655 14.31565,10.45469 12.47175,-9.82859 -1.69873,-24.60786 10.77301,-10.84783 12.47175,13.76003 2.64102,27.98596 10.285,9.90135 7.64398,-18.0846 6.83934,-2.51539 6.83934,-2.51539"
       inkscape:connector-curvature="0"
       sodipodi:nodetypes="cssszsssssc" />
    <path
       sodipodi:nodetypes="cssszsssssc"
       inkscape:connector-curvature="0"
       inkscape:original-d="m 327.62967,558.58139 c 0.40232,-10.22174 -1.27823,-17.99222 1.51603,-2.58815 2.66932,14.71523 -0.66696,-6.2903 6.5747,-5.11087 7.24166,1.17943 -0.70211,16.19554 11.2648,9.74483 14.87426,-8.01791 2.76956,-6.76513 14.61723,-11.24097 11.84767,-4.47585 -5.72562,20.99314 9.56233,11.16454 15.28794,-9.82859 2.48459,-24.60786 12.54245,-10.84783 10.05786,13.76003 0.53275,21.31655 14.31564,10.45468 12.47175,-9.82858 -1.69873,-24.60785 10.77303,-10.84783 12.47175,13.76003 2.64101,27.98597 10.28498,9.90136 7.64398,-18.08461 6.83935,-3.14515 6.83935,-3.14515"
       inkscape:path-effect="#path-effect4437;#path-effect4439"
       id="path4435"
       d="m 327.76793,558.66081 c 0.49644,-0.86685 1.00027,-1.72947 1.5114,-2.58776 0.75093,-1.2598 1.52079,-2.50782 2.57866,-3.48459 0.52757,-0.48798 1.1235,-0.9023 1.77817,-1.18333 0.65465,-0.28104 1.36943,-0.42603 2.07435,-0.37884 1.24303,0.0842 2.39835,0.76144 3.30063,1.65572 0.90327,0.89527 1.58015,1.99265 2.25341,3.09764 0.67041,1.10034 1.35438,2.2303 2.27088,3.16553 0.91763,0.93638 2.11164,1.68183 3.43717,1.81048 0.84406,0.0815 1.69938,-0.0927 2.46622,-0.43707 0.76686,-0.34443 1.44865,-0.85527 2.037,-1.44611 1.17539,-1.17859 1.98083,-2.66349 2.78438,-4.09271 0.80662,-1.43467 1.65064,-2.86501 2.87187,-3.93313 0.6094,-0.53383 1.30881,-0.9688 2.07281,-1.22196 0.76401,-0.25315 1.59453,-0.3193 2.3729,-0.13505 1.21315,0.2879 2.23006,1.16365 2.95332,2.20299 0.72399,1.04038 1.18774,2.23689 1.66255,3.43057 0.47325,1.18976 0.97215,2.4028 1.75631,3.43506 0.39306,0.51637 0.85737,0.98477 1.39697,1.35153 0.53961,0.36678 1.15629,0.63021 1.80473,0.72732 0.74032,0.11105 1.50352,0.002 2.19833,-0.264 0.69482,-0.26576 1.3234,-0.68452 1.86892,-1.18396 1.09095,-0.99707 1.84562,-2.29821 2.53798,-3.58703 0.69413,-1.29212 1.35207,-2.60697 2.2977,-3.71059 0.47171,-0.5515 1.01353,-1.04566 1.63047,-1.42235 0.61694,-0.37668 1.3111,-0.63373 2.02815,-0.70197 0.76741,-0.0729 1.54987,0.0718 2.26531,0.36854 0.71543,0.29673 1.36535,0.74193 1.94029,1.26576 1.14999,1.04948 1.98769,2.39005 2.82849,3.71323 0.83941,1.32099 1.71362,2.66156 2.91684,3.67715 0.60237,0.50759 1.28501,0.92869 2.03061,1.18836 0.74562,0.25967 1.55587,0.35403 2.33519,0.21853 1.32927,-0.23021 2.47045,-1.10872 3.30038,-2.16195 0.82965,-1.05286 1.39428,-2.28432 1.96818,-3.48859 0.57455,-1.20563 1.17776,-2.41476 2.06628,-3.40494 0.44364,-0.49535 0.95719,-0.93184 1.5381,-1.25382 0.5809,-0.32198 1.23094,-0.52739 1.89397,-0.55692 1.23198,-0.0538 2.43491,0.50517 3.3674,1.31849 0.93251,0.81334 1.62537,1.86469 2.24451,2.93937 0.61878,1.07406 1.1784,2.18917 1.90145,3.19817 0.72331,1.00936 1.63301,1.92296 2.76755,2.4295 1.29889,0.58012 2.84707,0.57068 4.13794,-0.0243 1.29092,-0.59504 2.30256,-1.7655 2.70451,-3.12775 -0.40439,1.36158 -1.41774,2.52905 -2.70768,3.12085 -1.28999,0.59182 -2.83476,0.59799 -4.12857,0.0174 -1.1299,-0.50724 -2.03544,-1.4201 -2.75522,-2.42889 -0.72005,-1.00915 -1.2761,-2.12305 -1.89364,-3.20005 -0.61719,-1.07636 -1.3103,-2.13345 -2.24586,-2.95283 -0.93559,-0.81938 -2.14754,-1.3873 -3.39433,-1.33542 -0.6712,0.0274 -1.32936,0.2327 -1.91771,0.5559 -0.58834,0.3232 -1.10838,0.762 -1.55759,1.25975 -0.89716,0.99601 -1.50602,2.21173 -2.08277,3.41609 -0.57741,1.20573 -1.1407,2.42759 -1.96611,3.471 -0.82513,1.04306 -1.9521,1.9036 -3.25497,2.1267 -0.76374,0.13024 -1.55868,0.0354 -2.2909,-0.22223 -0.73223,-0.25767 -1.40364,-0.67445 -1.99699,-1.17774 -1.1882,-1.0062 -2.05284,-2.33527 -2.8908,-3.6587 -0.83658,-1.32124 -1.68002,-2.67703 -2.84142,-3.74036 -0.58075,-0.53258 -1.24052,-0.98834 -1.97041,-1.29384 -0.72988,-0.30548 -1.53245,-0.45758 -2.32403,-0.38492 -0.73978,0.0678 -1.45395,0.33011 -2.08716,0.71372 -0.63319,0.38361 -1.18764,0.8864 -1.66893,1.44516 -0.96036,1.11691 -1.62897,2.44796 -2.32194,3.73257 -0.69474,1.28791 -1.4409,2.56593 -2.51173,3.54122 -0.53537,0.48675 -1.14818,0.891 -1.82087,1.14564 -0.67271,0.25463 -1.40642,0.3559 -2.11272,0.24745 -0.61854,-0.0951 -1.20937,-0.34951 -1.7282,-0.70516 -0.51885,-0.35567 -0.9673,-0.81087 -1.34843,-1.3157 -0.76421,-1.01013 -1.2524,-2.20051 -1.72407,-3.39317 -0.47013,-1.18873 -0.93981,-2.40992 -1.67767,-3.47472 -0.7386,-1.06585 -1.79244,-1.98643 -3.07241,-2.29286 -0.82145,-0.19712 -1.69314,-0.12896 -2.49112,0.13273 -0.79799,0.26169 -1.5243,0.71156 -2.15371,1.25951 -1.25637,1.09544 -2.11951,2.55789 -2.92713,3.98919 -0.81069,1.43674 -1.6021,2.88783 -2.75121,4.03652 -0.5739,0.5728 -1.23297,1.06194 -1.9674,1.38909 -0.73445,0.32715 -1.54596,0.48784 -2.33872,0.40887 -1.24502,-0.1233 -2.384,-0.82928 -3.27238,-1.73938 -0.88952,-0.91126 -1.55599,-2.01501 -2.2273,-3.1217 -0.66849,-1.10203 -1.35962,-2.2302 -2.28901,-3.15498 -0.93038,-0.92576 -2.14503,-1.65127 -3.4788,-1.74423 -0.75658,-0.0533 -1.51796,0.0999 -2.21047,0.39437 -0.6925,0.29445 -1.31806,0.72747 -1.86767,1.23233 -1.09648,1.0089 -1.88872,2.29268 -2.64009,3.54828 -0.51421,0.8585 -1.02112,1.72139 -1.52066,2.58854 z"
       style="fill:none;fill-opacity:1;fill-rule:evenodd;stroke:#000000;stroke-width:4;stroke-linecap:butt;stroke-linejoin:miter;stroke-miterlimit:4;stroke-dasharray:none;stroke-opacity:1" />
    <text
       xml:space="preserve"
       style="font-style:normal;font-variant:normal;font-weight:normal;font-stretch:normal;font-size:200px;line-height:125%;font-family:'Chalkboard SE';-inkscape-font-specification:'Chalkboard SE';letter-spacing:0px;word-spacing:0px;fill:#000000;fill-opacity:1;stroke:none;stroke-width:1px;stroke-linecap:butt;stroke-linejoin:miter;stroke-opacity:1"
       x="490.86691"
       y="550.901"
       id="text4441"
       sodipodi:linespacing="125%"><tspan
         sodipodi:role="line"
         id="tspan4443"
         x="490.86691"
         y="550.901"
         style="font-style:normal;font-variant:normal;font-weight:normal;font-stretch:normal;font-size:200px;font-family:AppleGothic;-inkscape-font-specification:AppleGothic">Mobi</tspan></text>
  </g>
</svg>
