<?xml version="1.0" encoding="UTF-8" standalone="no"?>
<!-- Created with Inkscape (http://www.inkscape.org/) -->

<svg
   xmlns:dc="http://purl.org/dc/elements/1.1/"
   xmlns:cc="http://creativecommons.org/ns#"
   xmlns:rdf="http://www.w3.org/1999/02/22-rdf-syntax-ns#"
   xmlns:svg="http://www.w3.org/2000/svg"
   xmlns="http://www.w3.org/2000/svg"
   xmlns:xlink="http://www.w3.org/1999/xlink"
   xmlns:sodipodi="http://sodipodi.sourceforge.net/DTD/sodipodi-0.dtd"
   xmlns:inkscape="http://www.inkscape.org/namespaces/inkscape"
   width="217.92065mm"
   height="95.034828mm"
   viewBox="0 0 772.1598 336.73758"
   id="svg2"
   version="1.1"
   inkscape:version="0.91 r13725"
   sodipodi:docname="logo.svg"
   inkscape:export-filename="C:\cygwin64\home\Peter Cipov\mobi\doc\logo.png"
   inkscape:export-xdpi="29.1"
   inkscape:export-ydpi="29.1">
  <sodipodi:namedview
     id="base"
     pagecolor="#ffffff"
     bordercolor="#666666"
     borderopacity="1.0"
     inkscape:pageopacity="0.0"
     inkscape:pageshadow="2"
     inkscape:zoom="0.73775017"
     inkscape:cx="399.14084"
     inkscape:cy="0.77918486"
     inkscape:document-units="px"
     inkscape:current-layer="layer2"
     showgrid="false"
     inkscape:window-width="1250"
     inkscape:window-height="936"
     inkscape:window-x="595"
     inkscape:window-y="33"
     inkscape:window-maximized="0"
     fit-margin-top="20"
     fit-margin-right="20"
     fit-margin-bottom="20"
     fit-margin-left="20" />
  <defs
     id="defs4">
    <marker
       inkscape:stockid="DotS"
       orient="auto"
       refY="0"
       refX="0"
       id="marker4638"
       style="overflow:visible"
       inkscape:isstock="true">
      <path
         id="path4640"
         d="m -2.5,-1 c 0,2.76 -2.24,5 -5,5 -2.76,0 -5,-2.24 -5,-5 0,-2.76 2.24,-5 5,-5 2.76,0 5,2.24 5,5 z"
         style="fill:#000000;fill-opacity:1;fill-rule:evenodd;stroke:#000000;stroke-width:1pt;stroke-opacity:1"
         transform="matrix(0.2,0,0,0.2,1.48,0.2)"
         inkscape:connector-curvature="0" />
    </marker>
    <marker
       inkscape:stockid="DotS"
       orient="auto"
       refY="0"
       refX="0"
       id="marker4634"
       style="overflow:visible"
       inkscape:isstock="true">
      <path
         id="path4636"
         d="m -2.5,-1 c 0,2.76 -2.24,5 -5,5 -2.76,0 -5,-2.24 -5,-5 0,-2.76 2.24,-5 5,-5 2.76,0 5,2.24 5,5 z"
         style="fill:#000000;fill-opacity:1;fill-rule:evenodd;stroke:#000000;stroke-width:1pt;stroke-opacity:1"
         transform="matrix(0.2,0,0,0.2,1.48,0.2)"
         inkscape:connector-curvature="0" />
    </marker>
    <marker
       inkscape:stockid="DotS"
       orient="auto"
       refY="0"
       refX="0"
       id="marker4630"
       style="overflow:visible"
       inkscape:isstock="true">
      <path
         id="path4632"
         d="m -2.5,-1 c 0,2.76 -2.24,5 -5,5 -2.76,0 -5,-2.24 -5,-5 0,-2.76 2.24,-5 5,-5 2.76,0 5,2.24 5,5 z"
         style="fill:#000000;fill-opacity:1;fill-rule:evenodd;stroke:#000000;stroke-width:1pt;stroke-opacity:1"
         transform="matrix(0.2,0,0,0.2,1.48,0.2)"
         inkscape:connector-curvature="0" />
    </marker>
    <marker
       inkscape:stockid="DotS"
       orient="auto"
       refY="0"
       refX="0"
       id="marker4626"
       style="overflow:visible"
       inkscape:isstock="true">
      <path
         id="path4628"
         d="m -2.5,-1 c 0,2.76 -2.24,5 -5,5 -2.76,0 -5,-2.24 -5,-5 0,-2.76 2.24,-5 5,-5 2.76,0 5,2.24 5,5 z"
         style="fill:#000000;fill-opacity:1;fill-rule:evenodd;stroke:#000000;stroke-width:1pt;stroke-opacity:1"
         transform="matrix(0.2,0,0,0.2,1.48,0.2)"
         inkscape:connector-curvature="0" />
    </marker>
    <marker
       inkscape:stockid="DotS"
       orient="auto"
       refY="0"
       refX="0"
       id="marker4622"
       style="overflow:visible"
       inkscape:isstock="true">
      <path
         id="path4624"
         d="m -2.5,-1 c 0,2.76 -2.24,5 -5,5 -2.76,0 -5,-2.24 -5,-5 0,-2.76 2.24,-5 5,-5 2.76,0 5,2.24 5,5 z"
         style="fill:#000000;fill-opacity:1;fill-rule:evenodd;stroke:#000000;stroke-width:1pt;stroke-opacity:1"
         transform="matrix(0.2,0,0,0.2,1.48,0.2)"
         inkscape:connector-curvature="0" />
    </marker>
    <marker
       inkscape:stockid="DotS"
       orient="auto"
       refY="0"
       refX="0"
       id="marker4618"
       style="overflow:visible"
       inkscape:isstock="true">
      <path
         id="path4620"
         d="m -2.5,-1 c 0,2.76 -2.24,5 -5,5 -2.76,0 -5,-2.24 -5,-5 0,-2.76 2.24,-5 5,-5 2.76,0 5,2.24 5,5 z"
         style="fill:#000000;fill-opacity:1;fill-rule:evenodd;stroke:#000000;stroke-width:1pt;stroke-opacity:1"
         transform="matrix(0.2,0,0,0.2,1.48,0.2)"
         inkscape:connector-curvature="0" />
    </marker>
    <marker
       inkscape:stockid="DotS"
       orient="auto"
       refY="0"
       refX="0"
       id="DotS"
       style="overflow:visible"
       inkscape:isstock="true">
      <path
         id="path4423"
         d="m -2.5,-1 c 0,2.76 -2.24,5 -5,5 -2.76,0 -5,-2.24 -5,-5 0,-2.76 2.24,-5 5,-5 2.76,0 5,2.24 5,5 z"
         style="fill:#000000;fill-opacity:1;fill-rule:evenodd;stroke:#000000;stroke-width:1pt;stroke-opacity:1"
         transform="matrix(0.2,0,0,0.2,1.48,0.2)"
         inkscape:connector-curvature="0" />
    </marker>
    <marker
       inkscape:stockid="DiamondS"
       orient="auto"
       refY="0"
       refX="0"
       id="DiamondS"
       style="overflow:visible"
       inkscape:isstock="true">
      <path
         id="path4441"
         d="M 0,-7.0710768 -7.0710894,0 0,7.0710589 7.0710462,0 0,-7.0710768 Z"
         style="fill:#000000;fill-opacity:1;fill-rule:evenodd;stroke:#000000;stroke-width:1pt;stroke-opacity:1"
         transform="scale(0.2,0.2)"
         inkscape:connector-curvature="0" />
    </marker>
    <marker
       inkscape:stockid="DotL"
       orient="auto"
       refY="0"
       refX="0"
       id="DotL"
       style="overflow:visible"
       inkscape:isstock="true">
      <path
         id="path4417"
         d="m -2.5,-1 c 0,2.76 -2.24,5 -5,5 -2.76,0 -5,-2.24 -5,-5 0,-2.76 2.24,-5 5,-5 2.76,0 5,2.24 5,5 z"
         style="fill:#000000;fill-opacity:1;fill-rule:evenodd;stroke:#000000;stroke-width:1pt;stroke-opacity:1"
         transform="matrix(0.8,0,0,0.8,5.92,0.8)"
         inkscape:connector-curvature="0" />
    </marker>
    <inkscape:path-effect
       effect="spiro"
       id="path-effect4209"
       is_visible="true" />
    <inkscape:path-effect
       effect="spiro"
       id="path-effect4203"
       is_visible="true" />
    <inkscape:path-effect
       effect="skeletal"
       id="path-effect4199"
       is_visible="true"
       pattern="m 156.05985,331.86573 c 0,-2.76 2.24,-5 5,-5 2.76,0 5,2.24 5,5 0,2.76 -2.24,5 -5,5 -2.76,0 -5,-2.24 -5,-5 z"
       copytype="single_stretched"
       prop_scale="1"
       scale_y_rel="false"
       spacing="0"
       normal_offset="0"
       tang_offset="0"
       prop_units="false"
       vertical_pattern="false"
       fuse_tolerance="0" />
    <inkscape:path-effect
       effect="spiro"
       id="path-effect4197"
       is_visible="true" />
    <inkscape:path-effect
       effect="skeletal"
       id="path-effect4193"
       is_visible="true"
       pattern="m 156.05985,326.86573 1,0"
       copytype="single_stretched"
       prop_scale="1"
       scale_y_rel="false"
       spacing="0"
       normal_offset="0"
       tang_offset="0"
       prop_units="false"
       vertical_pattern="false"
       fuse_tolerance="0" />
    <inkscape:path-effect
       effect="spiro"
       id="path-effect4191"
       is_visible="true" />
    <inkscape:path-effect
       effect="powerstroke"
       id="path-effect4185"
       is_visible="true"
       offset_points="0,-4.4809565"
       sort_points="true"
       interpolator_type="Linear"
       interpolator_beta="0.2"
       start_linecap_type="zerowidth"
       linejoin_type="round"
       miter_limit="4"
       end_linecap_type="zerowidth"
       cusp_linecap_type="round" />
    <inkscape:path-effect
       effect="spiro"
       id="path-effect4183"
       is_visible="true" />
    <inkscape:path-effect
       effect="spiro"
       id="path-effect4179"
       is_visible="true" />
    <inkscape:path-effect
       effect="spiro"
       id="path-effect4175"
       is_visible="true" />
    <inkscape:path-effect
       effect="spiro"
       id="path-effect4167"
       is_visible="true" />
    <inkscape:path-effect
       cusp_linecap_type="round"
       end_linecap_type="zerowidth"
       miter_limit="4"
       linejoin_type="round"
       start_linecap_type="zerowidth"
       interpolator_beta="0.2"
       interpolator_type="Linear"
       sort_points="true"
       offset_points="0,0.15944598"
       is_visible="true"
       id="path-effect4439"
       effect="powerstroke" />
    <inkscape:path-effect
       is_visible="true"
       id="path-effect4437"
       effect="spiro" />
    <inkscape:path-effect
       effect="powerstroke"
       id="path-effect4423"
       is_visible="true"
       offset_points="0,0.15944598"
       sort_points="true"
       interpolator_type="Linear"
       interpolator_beta="0.2"
       start_linecap_type="zerowidth"
       linejoin_type="round"
       miter_limit="4"
       end_linecap_type="zerowidth"
       cusp_linecap_type="round" />
    <inkscape:path-effect
       effect="spiro"
       id="path-effect4421"
       is_visible="true" />
    <inkscape:path-effect
       effect="spiro"
       id="path-effect4314"
       is_visible="true" />
    <inkscape:path-effect
       effect="spiro"
       id="path-effect4294"
       is_visible="true" />
    <inkscape:path-effect
       cusp_linecap_type="round"
       end_linecap_type="zerowidth"
       miter_limit="4"
       linejoin_type="round"
       start_linecap_type="zerowidth"
       interpolator_beta="0.2"
       interpolator_type="Linear"
       sort_points="true"
       offset_points="0,0.5"
       is_visible="true"
       id="path-effect4290"
       effect="powerstroke" />
    <inkscape:path-effect
       is_visible="true"
       id="path-effect4288"
       effect="spiro" />
    <inkscape:path-effect
       is_visible="true"
       id="path-effect4284"
       effect="spiro" />
    <inkscape:path-effect
       is_visible="true"
       id="path-effect4280"
       effect="spiro" />
    <inkscape:path-effect
       cusp_linecap_type="round"
       end_linecap_type="zerowidth"
       miter_limit="4"
       linejoin_type="round"
       start_linecap_type="zerowidth"
       interpolator_beta="0.2"
       interpolator_type="Linear"
       sort_points="true"
       offset_points="0,0.5"
       is_visible="true"
       id="path-effect4276"
       effect="powerstroke" />
    <inkscape:path-effect
       is_visible="true"
       id="path-effect4274"
       effect="spiro" />
    <inkscape:path-effect
       is_visible="true"
       id="path-effect4270"
       effect="spiro" />
    <inkscape:path-effect
       is_visible="true"
       id="path-effect4266"
       effect="spiro" />
    <inkscape:path-effect
       is_visible="true"
       id="path-effect4262"
       effect="spiro" />
    <inkscape:path-effect
       is_visible="true"
       id="path-effect4258"
       effect="spiro" />
    <inkscape:path-effect
       is_visible="true"
       id="path-effect4254"
       effect="spiro" />
    <inkscape:path-effect
       effect="spiro"
       id="path-effect4203-5"
       is_visible="true" />
    <inkscape:path-effect
       effect="spiro"
       id="path-effect4203-6"
       is_visible="true" />
    <inkscape:path-effect
       effect="spiro"
       id="path-effect4209-2"
       is_visible="true" />
    <inkscape:path-effect
       effect="spiro"
       id="path-effect4209-2-2"
       is_visible="true" />
    <inkscape:path-effect
       effect="spiro"
       id="path-effect4209-2-2-5"
       is_visible="true" />
    <inkscape:path-effect
       effect="spiro"
       id="path-effect4209-2-9"
       is_visible="true" />
    <inkscape:path-effect
       effect="spiro"
       id="path-effect4203-6-0"
       is_visible="true" />
    <inkscape:path-effect
       effect="spiro"
       id="path-effect4203-5-2"
       is_visible="true" />
    <inkscape:path-effect
       effect="spiro"
       id="path-effect4209-5"
       is_visible="true" />
    <inkscape:path-effect
       effect="spiro"
       id="path-effect4203-8"
       is_visible="true" />
  </defs>
  <metadata
     id="metadata7">
    <rdf:RDF>
      <cc:Work
         rdf:about="">
        <dc:format>image/svg+xml</dc:format>
        <dc:type
           rdf:resource="http://purl.org/dc/dcmitype/StillImage" />
        <dc:title></dc:title>
      </cc:Work>
    </rdf:RDF>
  </metadata>
  <g
     style="display:none"
     sodipodi:insensitive="true"
     id="layer1"
     inkscape:groupmode="layer"
     inkscape:label="Layer 1"
     transform="translate(-119.43225,-297.32521)">
    <image
       width="750"
       height="498.75"
       preserveAspectRatio="none"
       xlink:href="file:///Users/pcipov/Desktop/Whale_Tail_with_Unique_Pattern_600.jpg"
       id="image4214"
       x="-5.9669299"
       y="215.0063"
       sodipodi:absref="/Users/pcipov/Desktop/Whale_Tail_with_Unique_Pattern_600.jpg" />
  </g>
  <g
     inkscape:label="tail"
     id="layer2"
     inkscape:groupmode="layer"
     transform="translate(-119.43225,-297.32521)">
    <text
       xml:space="preserve"
       style="font-style:normal;font-variant:normal;font-weight:normal;font-stretch:normal;font-size:200px;line-height:125%;font-family:'Chalkboard SE';-inkscape-font-specification:'Chalkboard SE';letter-spacing:0px;word-spacing:0px;fill:#000000;fill-opacity:1;stroke:none;stroke-width:1px;stroke-linecap:butt;stroke-linejoin:miter;stroke-opacity:1"
       x="526.10919"
       y="523.61194"
       id="text4441"
       sodipodi:linespacing="125%"><tspan
         sodipodi:role="line"
         id="tspan4443"
         x="526.10919"
         y="523.61194"
         style="font-style:normal;font-variant:normal;font-weight:normal;font-stretch:normal;font-size:187.5px;font-family:'Microsoft Yi Baiti';-inkscape-font-specification:'Microsoft Yi Baiti'">Mobi</tspan></text>
    <path
       sodipodi:nodetypes="czssssssscsssssssc"
       inkscape:connector-curvature="0"
       id="path4218-2"
       d="m 404.82047,518.83956 c 1.49668,-16.1089 3.04293,-25.7532 4.21674,-32.0749 1.17381,-6.3217 6.07312,-29.462 18.10269,-30.8833 7.42142,-0.8768 61.2605,-2.5048 68.26874,-18.75437 2.14153,-4.96545 3.82141,-7.06598 3.22348,-15.03957 -0.1245,-1.66011 -0.46947,-2.51277 -0.99739,-2.81028 -1.88542,-1.06252 -6.10178,4.9582 -10.92097,6.58305 -5.90555,1.99114 -31.26759,-7.93127 -42.98161,-9.09066 -6.82445,-0.67544 -24.35553,0.13858 -26.63013,1.95033 -1.54453,1.23024 -1.66266,2.69242 -1.58242,3.51467 -0.25901,-1.43301 -1.1008,-5.12074 -3.27583,-7.65412 -2.74191,-3.19366 -6.72789,-9.32674 -19.95477,-15.66555 -5.26331,-2.52237 -33.02224,-10.77738 -37.59472,-15.80358 -5.50566,-6.052 -9.11457,-16.78952 -9.531,-11.49697 -0.96361,12.24685 -2.06437,14.76448 3.92935,26.86691 7.73064,15.60959 40.93868,44.06801 46.72038,49.13394 5.71175,5.0046 1.81122,21.6821 -1.55456,30.3337 -6.39839,16.4469 -8.62113,21.7281 -19.09866,32.9762"
       style="fill:none;fill-rule:evenodd;stroke:#000000;stroke-width:4;stroke-linecap:butt;stroke-linejoin:miter;stroke-miterlimit:4;stroke-dasharray:none;stroke-opacity:1" />
    <path
       id="path22-2"
       style="fill:#000000;fill-opacity:1;fill-rule:evenodd;stroke:none"
       d="m 363.76279,543.32656 c -4.58336,-3.1948 -10.04993,-5.5071 -15.31173,-8.0205 16.97505,-10.942 47.40033,-5.0061 74.00838,8.2025 4.67248,2.3196 18.28551,8.5678 40.47005,8.5678 -20.73558,-3.9668 -59.28669,-38.2822 -102.81378,-38.2822 -12.49705,0 -26.61394,7.2912 -26.61394,7.2912 -0.96426,0.084 -24.28468,-14.3445 -54.86982,-1.2751 -32.30222,13.8296 -33.85064,-9.6109 -21.47735,-13.1895 12.61415,-2.7285 16.25829,3.5786 16.67301,3.6375 0.19964,-0.3514 -4.12295,-16.1404 -25.66808,-13.0812 -22.04679,3.13 -25.20327,37.5751 0.20994,40.8634 9.75234,1.2604 14.10216,-0.5068 24.79371,-5.8334 3.50932,-1.7495 34.45172,-16.5942 53.74939,-6.4676 -1.11674,1.373 -1.42024,1.0703 -2.70862,2.2754 -5.16014,-0.4147 -9.49966,-1.3237 -15.1283,-0.9134 -10.19283,0.7462 -18.60964,4.6437 -27.16124,7.8393 -6.30266,2.355 -12.19059,5.5048 -18.41295,7.8393 -6.19291,2.3211 -21.45011,7.0113 -37.6922,-3.6891 -7.97557,-5.2537 -20.42176,-29.6975 0.8685,-46.8066 14.28778,-11.054 44.13923,-16.5242 58.15152,6.7454 18.08,-25.3101 -6.18112,-51.404 -30.07832,-52.13698 -50.71667,-1.55577 -61.71244,37.63108 -63.25569,44.29688 -3.60142,15.5519 0.60846,43.2487 16.95295,56.5118 24.47546,19.8605 46.23496,14.6908 46.85006,14.7651 21.67183,-3.2419 34.03406,-15.7912 54.5059,-20.2339 -1.22575,1.7164 -9.67645,12.5553 -33.54345,20.964 15.7036,0 50.3336,-6.8007 65.07959,-21.1459 0.60184,0.2534 15.9305,3.5756 16.77026,3.4629 -2.38302,1.5661 -18.52861,10.7593 -18.9588,11.4849 11.80533,0.6947 27.01686,-7.0253 37.18834,-7.4739 2.99074,-0.1319 18.39821,-4.3837 48.85445,4.3749 -38.99017,-17.6624 -57.51656,-12.1847 -61.43178,-10.573"
       inkscape:connector-curvature="0" />
  </g>
</svg>
